<?xml version="1.0" standalone="no"?>
<!DOCTYPE svg PUBLIC "-//W3C//DTD SVG 20010904//EN"
 "http://www.w3.org/TR/2001/REC-SVG-20010904/DTD/svg10.dtd">
<svg version="1.0" xmlns="http://www.w3.org/2000/svg"
 width="1968.000000pt" height="1968.000000pt" viewBox="0 0 1968.000000 1968.000000"
 preserveAspectRatio="xMidYMid meet">
<metadata>
Created by potrace 1.14, written by Peter Selinger 2001-2017
</metadata>
<g transform="translate(0.000000,1968.000000) scale(0.100000,-0.100000)"
fill="#000000" stroke="none">
<path d="M9705 18870 c-66 -4 -282 -10 -480 -14 -198 -4 -387 -10 -420 -15
-33 -5 -136 -9 -230 -10 -93 -1 -174 -6 -180 -11 -6 -5 -83 -11 -170 -14 -88
-3 -221 -10 -295 -15 -200 -16 -323 -27 -675 -60 -55 -6 -152 -15 -215 -21
-329 -31 -410 -42 -490 -66 -30 -9 -68 -18 -85 -21 -16 -2 -39 -8 -50 -13 -11
-5 -47 -11 -80 -14 -124 -11 -171 -17 -190 -26 -11 -5 -47 -11 -80 -14 -59 -5
-126 -15 -235 -35 -30 -6 -82 -15 -115 -21 -95 -16 -155 -27 -230 -45 -95 -22
-161 -35 -215 -42 -25 -3 -49 -9 -55 -14 -5 -5 -28 -9 -51 -9 -24 0 -45 -4
-48 -9 -3 -5 -23 -11 -43 -14 -21 -3 -58 -11 -83 -17 -25 -6 -65 -15 -90 -20
-25 -5 -65 -14 -90 -19 -25 -6 -67 -15 -95 -21 -27 -5 -75 -17 -105 -25 -80
-24 -130 -36 -173 -42 -20 -3 -40 -9 -43 -14 -3 -5 -20 -9 -39 -9 -19 0 -37
-4 -40 -10 -3 -5 -18 -10 -32 -10 -15 0 -40 -4 -57 -9 -17 -5 -50 -14 -73 -20
-24 -6 -60 -15 -80 -21 -21 -5 -78 -19 -128 -30 -49 -12 -110 -28 -135 -35
-25 -7 -65 -18 -90 -25 -25 -6 -53 -16 -62 -21 -10 -5 -31 -9 -47 -9 -17 0
-33 -4 -36 -10 -3 -5 -21 -10 -40 -10 -19 0 -37 -4 -40 -10 -3 -5 -18 -10 -32
-10 -14 0 -53 -9 -87 -19 -33 -11 -79 -24 -101 -30 -91 -22 -231 -63 -247 -72
-10 -5 -29 -9 -43 -9 -14 0 -33 -4 -43 -9 -9 -5 -37 -14 -62 -21 -25 -6 -74
-20 -110 -30 -36 -10 -83 -23 -105 -28 -35 -9 -139 -39 -310 -90 -27 -8 -58
-18 -67 -23 -10 -5 -27 -9 -37 -9 -11 0 -23 -4 -26 -10 -3 -5 -21 -10 -40 -10
-19 0 -37 -4 -40 -10 -3 -5 -15 -10 -26 -10 -10 0 -27 -4 -37 -9 -16 -8 -209
-70 -342 -108 -30 -9 -59 -20 -64 -25 -6 -4 -20 -8 -32 -8 -13 0 -26 -4 -29
-10 -3 -5 -17 -10 -30 -10 -13 0 -26 -4 -29 -9 -3 -5 -23 -11 -43 -14 -123
-18 -134 -22 -273 -77 -30 -12 -75 -29 -100 -37 -24 -9 -69 -29 -98 -45 -30
-15 -60 -28 -67 -28 -7 0 -39 -13 -70 -30 -31 -16 -62 -30 -69 -30 -6 0 -42
-16 -80 -35 -37 -19 -84 -39 -103 -46 -20 -6 -60 -24 -90 -40 -30 -16 -61 -29
-69 -29 -7 0 -33 -8 -56 -19 -136 -60 -168 -75 -168 -82 0 -4 -31 -22 -69 -40
-100 -49 -103 -60 -47 -174 25 -51 46 -96 46 -100 0 -4 27 -62 59 -130 33 -67
71 -153 86 -191 15 -38 43 -101 61 -141 19 -40 34 -77 34 -83 0 -6 9 -30 20
-52 11 -23 20 -50 20 -59 0 -10 4 -20 9 -23 5 -3 11 -20 14 -38 3 -18 20 -85
37 -148 17 -63 35 -137 40 -165 13 -72 34 -152 43 -161 4 -4 7 -21 7 -39 0
-17 4 -35 9 -40 5 -6 11 -30 14 -55 3 -25 11 -65 17 -90 7 -25 14 -67 16 -95
3 -27 9 -59 14 -70 5 -11 12 -49 15 -85 3 -36 10 -105 15 -155 24 -214 32
-415 32 -785 0 -415 -10 -613 -52 -965 -15 -123 -23 -254 -16 -270 4 -10 26
-3 90 29 47 24 91 48 98 53 7 6 51 30 98 54 47 24 91 49 98 56 15 14 185 97
222 108 14 4 54 23 90 41 35 19 68 34 73 34 5 0 23 6 40 14 18 7 61 23 97 34
64 21 65 21 84 2 17 -16 20 -40 26 -182 4 -90 7 -383 9 -652 1 -269 5 -494 8
-499 4 -6 11 -295 16 -642 5 -346 13 -882 18 -1190 5 -308 13 -830 18 -1160 5
-330 12 -627 15 -660 3 -33 8 -316 11 -630 6 -766 22 -1848 31 -2125 9 -288 6
-280 133 -345 53 -27 107 -57 121 -66 14 -10 53 -32 85 -50 33 -17 67 -37 75
-44 8 -6 31 -19 50 -28 36 -17 90 -62 90 -76 0 -18 -40 -40 -117 -65 -45 -14
-90 -26 -100 -26 -10 0 -31 -7 -47 -15 -15 -8 -34 -15 -41 -15 -7 0 -18 -7
-25 -16 -11 -13 -5 -24 47 -77 75 -77 91 -102 157 -230 29 -57 70 -127 92
-157 34 -49 184 -339 184 -358 0 -4 6 -18 13 -32 7 -14 24 -56 36 -95 13 -38
27 -78 32 -87 5 -10 9 -27 9 -37 0 -11 5 -23 10 -26 6 -3 10 -21 10 -39 0 -17
4 -36 9 -41 5 -6 12 -30 15 -55 3 -25 10 -74 16 -110 38 -229 51 -424 56 -850
4 -276 2 -407 -6 -435 -6 -22 -20 -68 -31 -101 -10 -34 -19 -73 -19 -87 0 -14
-5 -29 -10 -32 -6 -3 -10 -26 -10 -50 0 -24 -5 -47 -10 -50 -6 -3 -10 -37 -10
-75 0 -38 -4 -72 -10 -75 -5 -3 -10 -35 -10 -70 0 -35 -5 -67 -10 -70 -6 -3
-10 -25 -10 -49 0 -35 4 -45 24 -56 15 -7 37 -10 58 -6 18 4 56 11 83 15 28 5
63 14 78 20 16 6 41 11 57 11 16 0 32 5 35 10 3 6 28 10 55 10 27 0 52 4 55
10 3 5 30 10 59 10 28 0 56 4 62 9 5 5 29 12 54 15 25 3 72 10 105 15 33 6 89
15 125 21 36 5 90 15 120 20 30 6 82 15 115 20 33 6 85 14 115 19 30 5 91 14
135 20 44 6 89 16 100 21 19 9 65 15 190 26 33 3 69 9 80 14 11 5 47 12 80 14
33 3 89 8 125 11 36 3 74 10 85 15 11 5 47 11 80 14 33 3 92 10 130 15 76 11
165 24 290 40 129 17 199 29 215 35 8 3 49 10 90 16 150 22 216 31 265 36 28
3 59 9 70 14 11 5 52 12 90 14 153 12 201 17 220 26 11 5 47 11 80 14 33 3
101 10 150 16 193 23 254 30 356 38 58 5 110 11 115 14 5 4 51 9 101 12 51 4
103 10 115 15 13 4 61 9 107 10 47 1 94 7 104 13 12 6 64 8 126 6 l106 -4 137
-71 c76 -39 151 -81 167 -92 16 -12 32 -21 35 -21 3 0 29 -14 58 -31 29 -18
96 -54 148 -81 52 -28 126 -69 165 -92 38 -24 90 -54 115 -68 25 -14 63 -36
85 -48 22 -13 74 -41 115 -63 41 -22 86 -48 100 -57 14 -10 54 -33 90 -52 36
-19 81 -44 100 -55 20 -11 71 -39 115 -63 44 -23 86 -47 93 -53 7 -6 32 -20
55 -32 23 -12 89 -50 147 -83 58 -33 130 -73 160 -88 30 -15 74 -40 97 -56 23
-15 44 -28 47 -28 3 0 29 -14 58 -31 144 -85 177 -99 241 -99 91 0 210 47 352
140 22 14 54 32 70 40 17 8 64 38 105 65 41 28 95 62 120 75 25 14 47 28 50
31 3 3 12 8 20 12 8 4 32 17 52 29 90 56 185 114 203 124 58 32 99 57 152 90
110 71 128 82 178 109 27 15 67 40 90 55 39 27 194 122 265 162 19 11 47 29
62 39 14 11 29 19 32 19 3 0 38 20 78 45 93 57 174 88 199 75 10 -6 49 -10 86
-10 38 0 73 -4 79 -9 5 -5 43 -12 84 -15 162 -12 215 -18 225 -26 6 -4 41 -11
80 -15 38 -4 74 -9 78 -12 9 -5 61 -14 207 -33 77 -11 154 -22 263 -41 34 -5
87 -12 117 -15 30 -3 59 -10 64 -15 6 -5 34 -9 62 -9 29 0 56 -4 59 -10 3 -5
28 -10 55 -10 27 0 52 -4 55 -10 3 -5 30 -10 60 -10 30 0 56 -4 59 -9 3 -4 25
-11 48 -14 24 -3 75 -13 113 -22 64 -14 98 -21 225 -46 25 -4 70 -13 100 -19
30 -6 75 -14 100 -17 25 -3 49 -9 54 -14 6 -5 24 -9 41 -9 17 0 35 -4 41 -9 5
-5 29 -11 54 -14 67 -8 113 -17 135 -27 11 -5 36 -11 55 -13 19 -3 62 -12 95
-22 62 -18 104 -28 190 -45 65 -13 162 -36 338 -81 23 -6 59 -13 80 -16 20 -3
40 -9 43 -14 3 -5 20 -9 39 -9 19 0 37 -4 40 -10 3 -5 15 -10 26 -10 10 0 27
-4 37 -9 9 -5 49 -17 87 -26 63 -15 159 -42 241 -66 17 -5 40 -9 52 -9 11 0
23 -4 26 -9 6 -9 44 -16 139 -27 l47 -6 0 50 c0 28 -4 54 -10 57 -5 3 -10 16
-10 29 0 12 -4 26 -9 31 -5 6 -18 38 -30 72 -28 79 -26 142 18 623 15 155 22
204 32 215 5 5 9 28 9 51 0 24 5 46 10 49 6 3 10 16 10 28 0 12 6 39 14 62 8
22 19 65 26 95 12 60 67 235 81 262 5 10 9 27 9 37 0 11 5 23 10 26 6 3 10 17
10 30 0 13 5 27 10 30 6 3 10 16 10 29 0 12 4 26 8 31 9 10 111 322 132 405 7
25 16 53 21 62 5 10 9 23 9 30 0 6 43 99 95 205 52 106 95 196 95 200 0 11
111 236 125 253 7 8 30 48 50 88 21 39 42 72 47 72 4 0 8 5 8 10 0 6 31 57 70
114 80 120 91 150 64 171 -11 8 -31 15 -47 15 -15 0 -35 4 -45 10 -29 16 -223
80 -244 80 -16 0 -50 15 -106 46 -10 6 59 69 98 92 25 14 65 40 90 57 25 17
72 46 105 64 32 18 71 40 85 49 41 27 62 40 110 67 25 14 77 45 115 70 39 25
86 53 105 62 19 9 41 23 49 30 7 8 30 22 50 32 20 11 72 41 116 67 44 27 94
56 110 64 17 8 39 24 50 35 67 68 74 111 75 432 0 144 -4 284 -9 310 -5 26
-12 370 -15 763 -4 393 -8 787 -11 875 -3 88 -7 471 -10 850 -3 380 -10 1208
-15 1840 -5 633 -14 1557 -20 2054 -9 798 -9 907 5 920 13 13 23 12 92 -8 148
-43 338 -103 355 -112 10 -5 27 -9 37 -9 11 0 23 -4 26 -10 3 -5 15 -10 26
-10 10 0 27 -4 37 -9 9 -5 40 -16 67 -24 28 -8 75 -25 105 -37 30 -12 109 -40
175 -62 66 -22 128 -44 137 -49 46 -24 102 1 81 34 -4 7 -11 44 -15 82 -25
227 -46 398 -56 442 -5 21 -10 64 -11 96 -1 32 -6 70 -12 83 -5 14 -9 92 -9
173 0 92 -4 151 -11 158 -7 7 -9 38 -5 87 3 42 9 111 12 154 3 42 10 81 15 87
5 5 9 23 9 39 0 36 59 283 99 416 16 52 35 115 41 140 7 25 21 62 31 83 10 22
19 45 19 53 0 7 8 28 18 46 10 18 30 67 45 108 42 122 66 183 77 194 5 5 10
17 10 25 0 9 22 60 49 116 27 55 56 118 64 140 49 132 129 303 173 365 13 19
30 44 37 54 19 30 61 81 70 84 4 2 7 9 7 16 0 7 8 21 18 32 9 10 23 31 31 47
8 15 18 27 23 27 4 0 8 6 8 13 0 7 15 31 33 53 18 21 46 59 62 84 16 25 61 87
100 139 101 135 111 156 82 180 -17 14 -447 230 -507 255 -65 26 -165 70 -242
105 -37 17 -71 31 -77 31 -6 0 -30 9 -53 19 -156 70 -191 85 -258 108 -41 13
-79 29 -84 34 -6 5 -16 9 -23 9 -7 0 -36 11 -65 24 -29 13 -64 27 -78 31 -14
4 -29 11 -35 15 -5 4 -48 20 -95 34 -47 15 -98 33 -115 41 -60 27 -450 146
-610 186 -22 6 -54 15 -71 20 -17 5 -42 9 -57 9 -14 0 -29 5 -32 10 -3 6 -17
10 -30 10 -13 0 -27 5 -30 10 -3 6 -25 10 -49 10 -23 0 -46 3 -50 7 -8 8 -139
44 -416 113 -81 20 -127 32 -156 41 -17 5 -42 9 -57 9 -14 0 -29 5 -32 10 -3
6 -21 10 -40 10 -19 0 -37 5 -40 10 -3 6 -21 10 -40 10 -19 0 -36 4 -39 9 -3
5 -20 11 -38 14 -18 2 -78 16 -133 31 -55 15 -122 31 -150 36 -27 5 -68 13
-90 19 -112 28 -133 33 -168 38 -20 3 -40 9 -43 14 -3 5 -20 9 -38 9 -17 0
-36 4 -41 9 -6 5 -30 11 -55 14 -67 8 -113 17 -135 27 -24 11 -116 34 -200 50
-33 7 -70 16 -83 21 -13 5 -34 9 -47 9 -30 0 -113 19 -137 31 -10 5 -30 9 -46
9 -15 0 -32 4 -37 9 -6 5 -32 12 -60 15 -124 16 -141 18 -150 27 -5 5 -28 9
-50 9 -23 0 -45 3 -49 7 -9 10 -136 42 -168 42 -15 1 -53 8 -85 17 -32 8 -83
20 -113 25 -30 5 -77 14 -105 20 -27 6 -75 13 -105 16 -30 2 -59 9 -65 14 -5
5 -28 9 -51 9 -24 0 -46 5 -49 10 -3 6 -33 10 -65 10 -32 0 -62 5 -65 10 -3 6
-30 10 -59 10 -28 0 -56 4 -61 9 -6 5 -32 11 -60 14 -27 3 -86 13 -130 22 -44
9 -116 21 -160 26 -44 6 -109 14 -145 20 -282 40 -855 83 -1284 95 -105 3
-195 9 -201 14 -6 5 -86 10 -178 11 -92 1 -190 6 -219 10 -28 5 -198 11 -377
15 -179 3 -353 10 -386 15 -69 10 -412 10 -590 -1z m2240 -550 c110 -14 191
-27 250 -40 28 -6 65 -14 83 -17 18 -3 35 -9 38 -14 3 -5 20 -9 38 -9 17 0 36
-4 42 -9 5 -5 38 -19 74 -31 130 -44 248 -106 269 -141 23 -38 21 -59 -19
-174 -45 -131 -52 -149 -61 -167 -5 -10 -9 -27 -9 -37 0 -11 -4 -23 -10 -26
-5 -3 -10 -15 -10 -26 0 -10 -4 -27 -10 -37 -5 -9 -21 -60 -35 -112 -14 -52
-30 -112 -35 -132 -15 -54 -38 -67 -102 -55 -93 16 -89 3 -68 202 6 55 12 136
13 180 l2 80 -100 68 c-55 37 -120 77 -145 89 -25 11 -53 25 -62 29 -10 5 -26
9 -36 9 -10 0 -22 4 -27 8 -13 11 -72 28 -180 53 -133 30 -399 37 -534 15
-224 -38 -372 -113 -520 -265 -70 -72 -181 -211 -181 -226 0 -4 -10 -21 -22
-38 -29 -40 -128 -237 -128 -253 0 -8 -8 -28 -18 -46 -27 -50 -60 -168 -97
-343 -3 -16 -11 -50 -16 -75 -10 -44 -19 -107 -40 -300 -20 -178 -13 -366 19
-535 26 -136 119 -313 209 -396 41 -38 136 -109 147 -109 4 0 19 -8 33 -17 34
-23 145 -62 208 -74 181 -34 214 -36 380 -21 109 10 230 38 292 68 42 19 51
37 107 219 26 83 51 160 56 173 6 13 10 34 10 47 0 13 4 26 9 29 5 3 11 23 14
43 9 57 24 132 37 183 14 52 8 114 -12 132 -41 38 -83 46 -333 65 -38 2 -76 9
-82 15 -18 15 -15 87 5 128 16 33 20 35 76 38 32 2 64 -2 69 -7 7 -7 56 -11
117 -11 58 0 110 -4 115 -9 6 -6 64 -12 130 -15 66 -3 212 -10 325 -15 524
-22 530 -23 541 -42 10 -19 -13 -125 -31 -143 -6 -6 -55 -14 -110 -17 -145
-10 -168 -31 -222 -204 -14 -44 -31 -100 -37 -125 -7 -25 -20 -72 -30 -105
-10 -33 -24 -80 -30 -105 -7 -25 -17 -59 -22 -76 -5 -17 -9 -42 -9 -57 0 -14
-4 -29 -10 -32 -5 -3 -10 -46 -10 -95 0 -79 -3 -92 -22 -110 -12 -11 -30 -20
-40 -20 -20 0 -47 -6 -228 -51 -69 -17 -141 -35 -160 -40 -70 -17 -121 -29
-162 -40 -24 -6 -61 -13 -83 -15 -22 -3 -49 -9 -60 -14 -76 -33 -641 -42 -805
-12 -30 6 -75 13 -100 17 -25 4 -54 10 -65 15 -11 4 -60 20 -108 35 -101 32
-277 119 -351 175 -97 72 -256 253 -256 289 0 6 -4 11 -9 11 -5 0 -27 38 -50
84 -93 191 -137 492 -107 735 36 286 77 434 184 650 157 320 397 611 672 815
75 56 353 203 465 246 33 13 64 27 69 32 6 4 18 8 27 8 9 0 34 9 56 19 42 21
86 33 178 51 33 6 76 16 96 21 20 5 67 10 105 10 38 1 83 5 99 9 36 10 240 4
350 -10z m-2229 -65 c21 -32 15 -132 -9 -150 -9 -6 -58 -17 -110 -24 -155 -21
-194 -56 -216 -187 -24 -149 -64 -588 -101 -1119 -6 -82 -15 -211 -21 -285
-21 -299 -30 -453 -35 -625 -3 -99 -9 -184 -14 -189 -13 -13 -13 -281 -1 -304
5 -9 12 -24 14 -33 11 -35 69 -49 204 -49 70 0 133 -4 139 -8 22 -15 35 -53
29 -85 -13 -59 -28 -67 -129 -67 -85 0 -609 -32 -741 -46 -52 -5 -63 -3 -78
14 -16 18 -18 32 -13 104 4 45 9 126 12 178 3 52 10 99 15 104 13 15 11 52 -5
65 -11 9 -21 1 -52 -36 -120 -148 -293 -316 -385 -377 -18 -11 -44 -29 -58
-38 -77 -51 -184 -96 -291 -121 -52 -12 -356 -14 -415 -2 -21 4 -54 16 -72 26
-19 11 -40 19 -48 19 -59 0 -240 153 -312 265 -117 180 -130 348 -77 990 9
105 20 240 25 300 5 61 14 166 20 235 10 119 16 209 39 570 26 399 26 403 -33
458 -22 21 -37 24 -157 29 -116 5 -135 9 -151 26 -26 29 -26 96 1 125 26 27
37 29 190 37 360 18 492 26 555 34 194 25 180 25 204 0 19 -20 21 -31 16 -64
-3 -22 -9 -74 -11 -115 -3 -41 -10 -79 -15 -85 -5 -5 -9 -40 -9 -77 0 -37 -4
-87 -10 -110 -5 -24 -21 -182 -35 -353 -14 -170 -28 -330 -31 -355 -3 -25 -10
-115 -15 -200 -6 -85 -15 -211 -20 -280 -30 -371 -43 -725 -30 -772 6 -21 16
-57 23 -80 38 -138 145 -229 304 -259 66 -13 242 -5 258 11 5 5 20 10 32 10
13 0 26 5 29 10 3 6 15 10 25 10 46 0 253 140 320 217 19 22 55 66 80 98 25
31 57 72 73 90 15 18 27 41 27 52 0 10 4 23 9 29 5 5 12 38 15 74 8 93 24 293
35 455 5 77 17 237 26 355 9 118 20 280 26 360 12 159 27 444 35 671 l5 146
-30 31 c-33 33 -58 38 -236 48 -67 4 -93 9 -102 21 -20 26 -16 97 7 126 23 29
42 32 360 47 206 9 402 24 535 39 44 5 134 14 199 20 65 6 121 13 124 16 13
13 43 3 58 -20z m5055 -392 c150 -11 147 -7 154 -192 14 -394 29 -695 54
-1141 20 -358 31 -528 41 -650 5 -69 12 -170 16 -225 3 -55 10 -154 15 -220 6
-66 12 -160 15 -210 3 -49 10 -94 15 -99 5 -6 9 -17 9 -26 0 -24 34 -60 57
-60 11 0 23 -3 27 -7 4 -4 52 -15 107 -25 55 -9 107 -22 115 -29 21 -17 19
-112 -3 -132 -19 -16 -73 -13 -298 14 -278 33 -445 47 -670 55 -88 3 -164 10
-170 15 -5 5 -34 9 -64 9 -74 0 -89 15 -83 83 2 28 9 58 14 65 8 8 51 12 155
12 141 0 144 0 170 26 l25 25 -6 362 c-4 199 -10 402 -14 451 -7 89 -7 90 -37
99 -16 5 -84 13 -150 19 -163 13 -325 26 -475 37 -69 6 -157 13 -195 17 l-71
6 -35 -43 c-36 -45 -249 -356 -249 -365 0 -2 -24 -41 -53 -87 -107 -165 -197
-326 -197 -354 0 -23 31 -63 49 -63 9 0 21 -4 26 -9 6 -5 60 -17 120 -25 167
-24 155 -19 155 -76 0 -37 -6 -56 -23 -76 l-23 -27 -185 23 c-242 30 -367 40
-580 48 -146 6 -180 10 -203 26 -26 16 -28 22 -23 62 2 24 12 55 21 69 16 24
20 25 132 25 154 0 151 -2 272 163 13 18 33 43 45 57 12 14 28 37 36 53 8 15
18 27 23 27 4 0 8 6 8 13 0 7 8 22 19 33 10 11 40 52 67 90 26 38 69 96 94
129 25 33 75 102 111 153 72 104 99 142 129 181 11 14 42 55 68 91 26 36 50
67 54 68 5 2 8 8 8 14 0 9 44 72 127 183 13 17 42 57 65 90 23 33 65 90 92
127 28 37 69 92 91 124 22 31 46 62 53 70 6 7 12 17 12 21 0 5 16 26 35 47 19
21 35 42 35 46 0 4 37 56 81 116 74 99 117 158 247 346 44 63 71 100 110 148
12 15 22 32 22 37 0 5 8 18 18 29 10 10 33 42 51 69 61 90 55 87 151 81 47 -3
133 -9 191 -13z m-9086 -22 c95 -15 139 -26 175 -44 18 -9 39 -17 46 -17 19 0
113 -52 195 -108 94 -64 242 -215 308 -314 53 -80 161 -291 161 -314 0 -7 9
-29 20 -49 11 -20 20 -44 20 -55 0 -10 5 -22 10 -25 6 -3 10 -21 10 -40 0 -19
4 -36 9 -39 5 -3 12 -20 15 -38 4 -18 11 -55 17 -83 15 -74 28 -150 41 -240
16 -110 16 -470 -1 -570 -7 -44 -16 -105 -21 -135 -5 -30 -14 -75 -20 -100 -6
-25 -14 -57 -17 -73 -3 -15 -9 -30 -14 -33 -5 -3 -9 -16 -9 -29 0 -13 -4 -27
-10 -30 -5 -3 -10 -17 -10 -30 0 -13 -4 -27 -10 -30 -5 -3 -10 -14 -10 -23 -1
-21 -86 -192 -125 -251 -17 -24 -38 -58 -49 -75 -10 -17 -21 -33 -25 -36 -4
-3 -21 -25 -38 -50 -45 -66 -203 -213 -291 -272 -155 -103 -344 -189 -522
-237 -68 -18 -103 -26 -268 -60 -83 -17 -422 -14 -512 4 -103 22 -284 81 -338
111 -141 79 -265 187 -359 314 -46 61 -173 312 -173 341 0 10 -4 21 -10 24 -5
3 -10 17 -10 30 0 13 -4 27 -10 30 -5 3 -10 21 -10 40 0 19 -4 36 -9 39 -5 3
-11 23 -14 43 -3 21 -11 61 -17 88 -22 102 -33 256 -33 465 -1 223 13 351 52
505 6 22 14 58 19 80 12 49 42 137 52 150 4 6 13 27 20 48 14 45 106 224 126
248 8 8 14 20 14 26 0 5 9 18 20 28 11 10 20 23 20 29 0 6 12 25 28 41 15 17
40 49 55 71 32 47 238 251 282 280 17 10 39 27 50 36 11 9 36 28 55 42 41 29
311 166 327 166 6 0 28 8 50 19 36 18 123 45 223 71 25 6 59 16 76 21 17 5 48
9 70 10 21 0 48 4 59 9 24 11 225 5 310 -9z m10890 -512 c61 -17 126 -34 145
-38 19 -5 55 -16 80 -25 25 -8 57 -16 72 -16 15 0 29 -4 32 -9 3 -5 20 -11 38
-14 18 -3 69 -14 113 -25 44 -11 107 -25 140 -32 33 -6 96 -20 140 -30 44 -11
96 -22 115 -25 19 -3 58 -10 85 -16 28 -5 67 -13 88 -16 20 -3 40 -9 43 -14 3
-5 20 -9 39 -9 19 0 37 -4 40 -10 3 -5 18 -10 32 -10 15 0 40 -4 57 -10 187
-59 240 -78 305 -112 78 -41 168 -119 192 -167 8 -14 24 -42 36 -61 52 -82 70
-255 38 -375 -32 -122 -74 -194 -165 -288 -102 -106 -168 -153 -264 -184 -118
-39 -203 -53 -358 -60 -133 -5 -148 -8 -148 -24 0 -10 5 -21 10 -24 6 -3 10
-16 10 -29 0 -12 4 -26 8 -32 4 -5 23 -58 41 -119 19 -60 48 -157 66 -215 18
-58 43 -139 55 -180 12 -41 26 -84 30 -95 4 -11 18 -54 30 -95 40 -133 112
-354 121 -372 5 -10 9 -24 9 -31 0 -19 44 -104 66 -128 18 -20 75 -50 124 -64
48 -14 59 -31 45 -71 -6 -19 -20 -46 -31 -60 l-19 -26 -100 27 c-55 14 -116
30 -135 35 -19 5 -60 16 -90 26 -59 18 -127 32 -200 41 -25 3 -49 9 -55 14 -5
5 -23 9 -40 9 -16 0 -37 6 -46 13 -16 12 -44 88 -68 182 -97 382 -105 413
-114 421 -4 4 -7 18 -7 30 0 13 -4 26 -10 29 -5 3 -10 19 -10 36 0 16 -4 37
-9 47 -5 9 -14 35 -20 57 -5 22 -33 113 -61 201 -27 89 -53 176 -56 193 -4 17
-11 34 -15 37 -5 3 -9 16 -9 29 0 13 -4 27 -10 30 -5 3 -10 15 -10 26 0 10 -4
27 -9 37 -20 38 -51 152 -51 184 0 21 7 41 18 51 15 14 25 13 107 -9 76 -20
113 -24 240 -24 190 0 237 12 355 91 81 55 134 114 179 203 46 89 60 128 72
206 4 30 11 69 15 87 4 22 -2 56 -20 111 -23 68 -35 88 -80 130 -98 93 -284
157 -491 169 l-80 4 -22 -43 c-12 -24 -33 -72 -48 -108 -15 -36 -49 -111 -76
-168 -27 -56 -49 -107 -49 -113 0 -6 -20 -52 -45 -103 -25 -52 -45 -96 -45
-100 0 -3 -13 -34 -30 -68 -16 -34 -30 -66 -30 -72 0 -6 -18 -47 -40 -91 -22
-44 -40 -83 -40 -87 0 -5 -9 -27 -19 -51 -11 -23 -32 -71 -47 -107 -16 -36
-41 -89 -56 -119 -15 -29 -28 -61 -28 -70 0 -9 -4 -21 -9 -27 -5 -5 -14 -27
-21 -49 -7 -22 -25 -67 -41 -100 -51 -112 -79 -177 -79 -186 0 -5 -13 -37 -30
-71 -16 -34 -30 -65 -30 -70 0 -4 -9 -27 -19 -51 -90 -199 -95 -239 -38 -289
21 -19 190 -78 223 -78 44 0 58 -50 29 -107 -20 -39 -41 -57 -56 -47 -7 4 -29
11 -48 15 -20 4 -92 23 -161 43 -194 57 -351 98 -393 103 -20 3 -40 9 -43 14
-3 5 -25 9 -49 9 -24 0 -47 5 -50 10 -3 6 -20 10 -37 10 -17 0 -47 4 -67 10
-20 5 -90 21 -156 35 -66 14 -126 31 -133 39 -19 18 3 91 34 115 22 17 26 17
96 0 99 -25 178 -25 211 1 22 18 157 273 157 298 0 6 14 36 30 67 17 31 30 61
30 66 0 5 20 52 45 105 25 52 45 99 45 104 0 10 19 54 75 175 18 39 36 80 39
92 4 12 22 53 41 92 19 40 35 76 35 82 0 5 14 36 30 69 17 33 30 64 30 70 0 5
18 47 40 92 22 46 40 87 40 91 0 5 13 36 29 70 52 111 81 179 81 191 0 6 14
38 30 71 17 33 30 63 30 67 0 5 9 27 20 51 34 75 82 211 82 236 0 25 -29 70
-53 82 -37 18 -87 34 -181 59 -60 16 -87 43 -70 70 7 11 12 26 12 33 0 21 30
57 48 57 9 0 67 -14 127 -31z m-13290 -129 c3 -5 17 -10 31 -10 14 0 35 -11
48 -25 21 -22 24 -38 30 -152 4 -71 11 -171 16 -223 6 -52 12 -126 16 -165 3
-38 9 -79 14 -90 9 -19 18 -90 23 -169 2 -35 -2 -42 -28 -57 -51 -30 -97 -33
-122 -9 -13 11 -25 33 -28 48 -11 51 -27 107 -36 124 -5 10 -9 27 -9 37 0 11
-4 23 -10 26 -5 3 -10 17 -10 30 0 13 -4 27 -10 30 -5 3 -10 17 -10 31 0 44
-37 102 -80 124 -21 11 -50 20 -63 20 -12 0 -28 5 -34 11 -15 15 -311 14 -376
-2 -104 -24 -323 -101 -370 -130 -27 -16 -51 -29 -54 -29 -10 0 -158 -114
-187 -144 -145 -153 -244 -365 -279 -596 -15 -98 -14 -400 1 -515 17 -136 74
-372 103 -427 5 -10 9 -27 9 -37 0 -11 5 -23 10 -26 6 -3 10 -15 10 -26 0 -10
4 -27 9 -37 6 -9 22 -51 37 -92 16 -41 40 -93 54 -115 14 -22 32 -53 40 -70 8
-16 27 -43 42 -60 16 -16 28 -33 28 -37 0 -9 77 -88 86 -88 5 0 22 -13 39 -29
33 -31 158 -101 181 -101 8 0 22 -4 32 -9 49 -26 204 -51 309 -51 37 1 113 8
168 16 55 8 117 18 138 21 20 3 40 9 43 14 3 5 15 9 27 9 39 0 241 86 307 131
14 9 43 27 64 39 58 32 179 134 223 186 119 144 158 168 197 125 22 -24 37
-127 24 -161 -12 -31 -249 -272 -308 -313 -25 -17 -47 -34 -50 -37 -23 -29
-300 -180 -330 -180 -6 0 -30 -9 -52 -20 -23 -11 -54 -20 -69 -20 -15 0 -30
-4 -33 -9 -3 -4 -22 -11 -43 -15 -21 -3 -60 -11 -88 -16 -140 -30 -588 -52
-630 -31 -11 6 -51 12 -90 15 -91 6 -155 15 -180 25 -11 5 -42 14 -70 20 -97
22 -209 70 -280 119 -61 42 -225 207 -225 227 0 8 -4 15 -9 15 -15 0 -118 214
-150 315 -49 153 -51 159 -51 196 0 19 -4 39 -9 45 -31 31 -31 557 0 589 5 5
9 28 9 51 0 24 5 46 10 49 6 3 10 18 10 32 0 27 53 191 97 298 37 90 136 285
145 285 4 0 8 5 8 10 0 19 152 264 170 275 6 4 28 30 49 58 21 29 101 114 177
191 124 123 172 165 235 202 11 6 27 17 36 25 19 15 34 24 121 72 66 36 269
117 293 117 10 0 21 5 24 10 3 6 21 10 40 10 19 0 37 5 40 10 3 6 26 10 50 10
24 0 47 5 50 10 3 6 33 10 65 10 32 0 62 5 65 10 4 6 68 10 160 10 92 0 156
-4 160 -10z m10130 -3279 c103 -10 230 -22 440 -41 66 -6 158 -17 205 -25 47
-8 137 -21 200 -29 103 -13 376 -51 535 -75 55 -8 147 -28 235 -51 60 -15 81
-19 255 -50 94 -16 211 -41 260 -56 50 -15 130 -37 179 -50 98 -25 105 -29 88
-46 -12 -12 -105 7 -257 52 -66 19 -121 31 -265 55 -103 18 -140 25 -240 50
-210 53 -281 67 -475 90 -71 8 -157 19 -190 24 -33 6 -94 14 -135 20 -41 6
-136 19 -210 31 -128 19 -414 47 -724 70 -163 12 -186 17 -186 37 0 17 62 15
285 -6z m3036 -601 c57 -43 135 -101 173 -127 107 -75 230 -167 238 -178 12
-15 9 -35 -4 -35 -14 0 -208 131 -303 205 -38 30 -107 83 -152 117 -76 58
-104 98 -69 98 7 0 60 -36 117 -80z m-5866 -355 c94 -8 211 -15 261 -15 109 0
301 -17 329 -30 11 -4 62 -11 114 -14 52 -3 99 -10 105 -15 10 -8 48 -15 296
-52 41 -6 100 -15 130 -19 30 -5 102 -12 160 -15 58 -3 114 -10 125 -15 11 -4
46 -20 78 -34 32 -14 62 -26 66 -26 5 0 49 -14 98 -31 136 -47 334 -89 418
-89 41 0 77 -4 80 -10 3 -5 14 -10 24 -10 16 0 68 -25 155 -72 17 -9 39 -17
48 -18 9 0 20 -4 23 -10 3 -5 17 -10 31 -10 14 0 35 -5 46 -11 14 -8 23 -8 31
0 6 6 31 11 55 11 33 0 49 -6 63 -22 11 -11 19 -25 19 -29 0 -5 18 -12 40 -15
22 -4 42 -10 45 -14 3 -4 36 -5 75 -2 48 3 80 0 98 -9 68 -33 112 -65 112 -81
0 -10 4 -18 9 -18 5 0 12 -8 15 -17 8 -25 118 -83 157 -83 36 0 99 -42 99 -66
0 -8 12 -26 28 -40 26 -25 30 -26 120 -19 l94 7 41 -44 c24 -25 48 -63 56 -88
8 -25 18 -49 23 -54 11 -14 10 -64 -2 -71 -5 -3 -10 -19 -10 -36 0 -16 -4 -29
-9 -29 -6 0 -6 -12 1 -30 8 -25 13 -28 24 -19 8 6 14 17 14 23 0 12 73 56 93
56 6 0 19 -7 29 -17 19 -17 26 -91 9 -109 -4 -5 -11 -24 -14 -41 -6 -29 -3
-35 23 -48 16 -8 57 -15 92 -16 95 -1 143 -39 162 -127 9 -38 17 -44 86 -70
30 -11 84 -37 120 -57 58 -33 72 -37 131 -36 64 2 68 0 105 -36 44 -42 64 -74
64 -100 1 -22 37 -66 67 -82 12 -6 36 -11 54 -11 41 0 69 -25 69 -61 0 -15 12
-41 26 -58 23 -28 31 -31 85 -31 73 0 125 -30 157 -91 23 -42 30 -113 12 -124
-5 -3 -10 -17 -10 -30 0 -13 -4 -27 -10 -30 -5 -3 -10 -14 -10 -24 0 -9 -9
-27 -20 -39 -11 -12 -20 -24 -20 -28 0 -4 -18 -31 -40 -60 -35 -45 -41 -60
-45 -111 -9 -142 -83 -382 -134 -437 -11 -12 -23 -40 -27 -64 -4 -23 -11 -45
-15 -48 -5 -3 -9 -16 -9 -29 0 -13 -5 -27 -10 -30 -6 -4 -22 -25 -36 -47 -32
-50 -109 -128 -127 -128 -24 0 -76 -46 -135 -121 -33 -41 -91 -106 -131 -145
-108 -108 -131 -141 -131 -185 0 -21 -4 -40 -9 -43 -5 -3 -12 -18 -15 -32 -7
-26 -58 -107 -81 -129 -31 -30 -110 -85 -122 -85 -7 0 -13 -4 -13 -10 0 -5 -9
-10 -21 -10 -22 0 -81 -44 -164 -121 -89 -84 -182 -150 -278 -199 -26 -14 -63
-38 -81 -55 -82 -74 -97 -85 -111 -85 -8 0 -15 -4 -15 -9 0 -5 -10 -11 -22
-15 -27 -6 -81 -82 -105 -148 -14 -40 -15 -53 -5 -81 20 -55 15 -139 -14 -219
-15 -40 -30 -74 -35 -76 -5 -2 -9 -10 -9 -19 0 -8 -6 -20 -12 -28 -32 -33 -54
-65 -125 -178 -89 -143 -133 -200 -242 -321 -61 -66 -81 -95 -81 -116 0 -50
-56 -141 -129 -210 -74 -70 -137 -100 -210 -100 -37 0 -47 -6 -86 -47 -25 -27
-45 -51 -45 -54 -1 -27 -164 -146 -212 -156 -16 -3 -31 -10 -34 -14 -3 -5 -20
-9 -39 -9 -35 0 -85 -18 -85 -30 0 -4 -21 -29 -47 -54 -77 -74 -182 -96 -258
-53 -46 26 -94 91 -95 129 0 20 -4 25 -17 22 -30 -7 -255 34 -371 68 -49 14
-112 67 -152 128 -15 23 -37 48 -49 56 -11 8 -21 21 -21 28 0 17 -175 183
-214 203 -17 9 -93 78 -168 153 -139 140 -214 200 -249 200 -10 0 -19 5 -19
10 0 6 -9 10 -20 10 -11 0 -20 4 -20 8 0 5 -16 17 -35 28 -31 17 -37 17 -45 4
-5 -8 -10 -25 -10 -37 0 -13 -4 -23 -10 -23 -5 0 -10 -9 -10 -20 0 -11 -4 -28
-9 -38 -4 -9 -20 -41 -35 -69 -31 -64 -40 -151 -20 -193 26 -51 40 -138 26
-160 -7 -11 -12 -28 -12 -38 0 -10 -9 -28 -20 -40 -11 -12 -20 -26 -20 -32 0
-6 -19 -29 -42 -50 -23 -22 -35 -40 -27 -40 8 0 22 -14 31 -30 17 -29 16 -31
-12 -85 -16 -30 -38 -64 -49 -77 -30 -32 -26 -38 23 -38 40 0 49 -5 90 -47 25
-26 46 -55 46 -64 0 -10 5 -21 10 -24 31 -19 -23 -167 -84 -233 -30 -32 -121
-82 -150 -82 -47 0 -140 72 -148 115 -6 35 -32 27 -88 -25 -59 -55 -94 -64
-125 -30 -14 16 -17 30 -12 70 6 51 2 57 -31 41 -83 -42 -109 -51 -146 -51
-27 0 -49 7 -62 18 -10 10 -27 21 -36 25 -18 6 -68 79 -68 97 0 6 -32 26 -70
45 -39 18 -91 52 -116 75 -45 41 -114 79 -145 80 -9 0 -52 35 -96 78 -44 42
-149 134 -234 204 -167 137 -163 133 -269 228 -82 73 -119 100 -139 100 -7 0
-32 20 -55 44 -22 24 -62 53 -87 64 -25 12 -68 41 -95 67 -27 25 -110 91 -184
147 -172 130 -191 143 -214 151 -10 4 -43 24 -75 46 -31 21 -103 64 -161 96
-58 32 -122 68 -142 81 -21 13 -41 24 -45 24 -31 0 -85 26 -123 59 -24 22 -71
54 -105 71 -33 18 -65 36 -71 41 -6 5 -35 22 -65 37 -30 16 -103 56 -164 90
-119 67 -170 93 -340 173 -154 73 -278 144 -341 195 -30 24 -56 44 -60 44 -9
0 -34 28 -34 39 0 25 -75 58 -145 63 -84 6 -113 20 -182 87 -47 46 -55 50 -85
44 -18 -3 -38 -10 -44 -15 -7 -5 -23 2 -42 21 -30 27 -35 28 -101 23 -58 -4
-75 -1 -98 14 -16 10 -37 23 -48 29 -27 14 -74 85 -75 113 0 31 -28 28 -70 -8
-19 -16 -37 -30 -40 -29 -19 2 -67 39 -75 57 -10 22 -55 32 -55 12 0 -5 -12
-10 -26 -10 -14 0 -35 -5 -46 -11 -14 -8 -23 -8 -31 0 -6 6 -21 11 -34 11 -33
0 -92 36 -141 86 l-44 44 -31 -30 c-55 -52 -112 -36 -124 35 -3 19 -7 35 -9
35 -2 0 -19 -9 -39 -20 -25 -14 -54 -20 -96 -20 -65 0 -96 15 -151 72 -31 33
-59 35 -116 8 -29 -14 -61 -20 -110 -20 l-69 0 -62 55 c-34 30 -68 55 -75 55
-7 0 -23 -9 -36 -20 -29 -25 -57 -25 -94 -1 -29 19 -30 19 -67 0 -54 -27 -137
-26 -190 4 -49 28 -129 105 -129 124 0 20 -41 73 -56 73 -7 0 -17 7 -21 15 -5
8 -13 11 -18 7 -10 -7 -16 -18 -53 -103 -11 -25 -32 -54 -47 -63 -24 -16 -28
-16 -51 -2 -32 21 -37 49 -24 121 20 107 19 116 -19 137 -52 29 -98 87 -106
133 -16 86 -8 156 26 232 10 24 19 47 19 52 0 5 14 21 31 35 22 19 42 26 72
26 41 0 87 29 87 55 0 7 15 31 33 55 17 24 46 62 62 85 17 23 55 64 85 90 30
26 62 54 70 61 8 8 30 26 48 40 17 14 32 30 32 36 0 19 74 78 111 90 21 6 70
37 109 70 40 32 82 64 94 70 11 6 39 26 61 43 39 31 87 61 170 106 22 12 74
45 115 74 41 28 85 54 96 57 12 3 86 45 165 93 218 132 227 137 334 192 145
74 231 102 402 128 30 5 47 14 59 33 35 54 84 68 119 34 18 -17 21 -17 55 0
54 28 70 41 70 60 0 10 4 18 8 18 4 0 25 29 47 64 22 36 50 70 63 75 28 13
159 15 166 2 8 -12 55 -20 61 -11 3 4 23 10 46 14 29 5 43 12 46 26 3 11 9 20
14 20 5 0 9 5 9 12 0 40 63 60 114 37 44 -21 104 6 156 68 98 119 93 116 195
110 113 -6 195 19 217 67 7 17 26 37 43 46 27 15 32 15 68 -3 39 -19 40 -19
68 2 15 12 31 21 34 21 2 0 28 23 57 51 l52 51 55 -6 c180 -20 172 -21 223 19
41 33 51 36 75 27 40 -13 65 -1 129 64 60 60 120 93 169 94 19 0 44 11 64 28
l34 28 -2 92 c-2 86 0 94 23 117 32 32 47 31 85 -1 23 -19 31 -34 31 -59 0
-19 5 -37 10 -40 6 -3 10 -28 10 -56 0 -27 5 -49 10 -49 6 0 10 -25 10 -55 0
-46 -4 -60 -25 -80 -13 -14 -30 -25 -38 -25 -11 0 -16 -22 -20 -92 -6 -108
-22 -153 -71 -196 -41 -36 -86 -47 -173 -45 -69 1 -109 20 -139 64 -10 16 -22
29 -26 29 -11 0 -10 -32 1 -49 18 -28 -33 -90 -75 -91 -11 0 -30 9 -41 20 -24
22 -27 19 -58 -44 -23 -45 -59 -76 -89 -76 -11 0 -39 -14 -60 -30 -22 -17 -49
-30 -61 -30 -40 0 -113 31 -145 61 -37 35 -50 31 -50 -18 0 -44 -24 -73 -59
-73 -28 0 -81 39 -81 60 0 7 -7 10 -16 6 -9 -3 -20 -6 -25 -6 -5 0 -9 -15 -9
-32 0 -18 -7 -42 -15 -52 -8 -11 -15 -27 -15 -35 0 -8 -14 -30 -32 -48 -28
-29 -38 -33 -83 -33 -41 0 -58 -5 -81 -25 -16 -14 -34 -25 -40 -25 -26 0 -94
42 -123 77 -49 58 -51 62 -51 71 0 10 -48 8 -58 -3 -3 -3 -8 -48 -10 -100 -4
-85 -7 -97 -30 -120 -13 -14 -29 -25 -34 -25 -22 0 -68 43 -68 63 0 12 -7 35
-15 51 -8 15 -15 37 -15 47 0 20 -10 23 -47 13 -22 -6 -23 -11 -23 -95 0 -70
-5 -99 -21 -135 -25 -53 -75 -94 -113 -94 -15 0 -36 -9 -48 -20 -23 -21 -63
-27 -73 -10 -3 6 -14 10 -24 10 -24 0 -111 87 -111 112 0 18 -4 20 -31 14 -46
-9 -56 -29 -64 -131 -7 -96 -21 -125 -60 -125 -30 0 -75 47 -75 77 0 13 -7 26
-17 30 -26 10 -50 -30 -57 -97 -7 -59 -11 -75 -43 -147 -29 -68 -122 -126
-167 -105 -87 40 -116 57 -116 68 0 22 -16 25 -53 9 -47 -19 -50 -27 -48 -99
2 -50 -2 -65 -19 -84 -38 -40 -79 -25 -136 51 -19 26 -19 26 -42 7 -18 -15
-24 -33 -29 -87 -9 -92 -54 -179 -108 -207 -22 -11 -65 -22 -96 -24 -48 -4
-63 0 -89 18 -31 22 -32 22 -70 5 -62 -28 -80 -50 -80 -97 0 -34 -6 -47 -35
-74 -18 -19 -38 -34 -43 -34 -16 0 -62 41 -62 56 0 19 -13 18 -54 -7 -34 -20
-36 -24 -36 -72 0 -36 -9 -70 -29 -113 -50 -106 -112 -149 -203 -142 -29 2
-61 8 -70 12 -24 11 -78 -65 -78 -111 0 -18 -4 -33 -10 -33 -5 0 -10 -8 -10
-17 0 -10 -12 -31 -26 -48 -21 -24 -24 -36 -19 -65 4 -19 14 -42 24 -50 10 -8
21 -22 24 -31 7 -21 70 -33 96 -19 38 20 75 12 117 -26 21 -20 54 -48 72 -62
32 -25 34 -25 62 -9 41 25 79 21 112 -10 15 -15 28 -33 28 -40 0 -19 41 -15
70 7 14 11 33 20 42 20 9 0 20 5 23 10 3 6 32 10 64 10 58 0 60 -1 120 -59 33
-32 61 -64 61 -70 0 -6 9 -11 20 -11 11 0 20 5 20 10 0 6 7 10 15 10 8 0 15 5
15 10 0 6 8 10 18 10 10 0 22 4 27 9 6 5 41 12 78 16 l68 7 45 -46 c24 -25 44
-56 44 -68 0 -20 1 -20 18 -5 45 41 140 -4 129 -60 -4 -20 -2 -21 12 -11 8 7
26 25 39 41 22 24 30 27 91 27 40 0 80 -6 98 -15 36 -18 116 -115 123 -150 l5
-24 34 29 c40 36 70 38 98 8 23 -26 36 -91 21 -106 -6 -6 -6 -12 0 -16 5 -3
27 10 48 29 22 19 47 35 56 35 9 0 20 5 23 10 9 14 111 12 138 -2 41 -24 57
-41 57 -64 0 -13 5 -26 10 -29 6 -3 10 -15 10 -27 0 -19 1 -20 25 -4 13 9 32
16 42 16 30 0 63 -29 63 -56 0 -15 6 -24 15 -24 8 0 15 4 15 8 0 21 74 42 146
42 91 0 142 -23 162 -73 8 -18 20 -47 28 -65 8 -18 14 -44 14 -57 0 -33 26
-33 64 0 44 38 87 32 111 -16 8 -15 15 -37 15 -48 0 -24 49 -38 79 -22 11 6
51 11 89 11 62 0 72 -3 96 -26 14 -15 26 -32 26 -39 0 -25 57 -75 86 -75 19 0
41 -12 67 -37 l38 -38 82 3 c100 3 134 -11 179 -74 21 -30 51 -54 89 -74 74
-37 99 -53 99 -62 0 -14 51 -58 90 -78 26 -13 59 -20 98 -20 90 0 152 -40 167
-107 3 -18 13 -33 20 -33 13 0 50 -19 170 -84 36 -20 54 -25 65 -18 11 7 22 5
35 -4 10 -8 26 -14 34 -14 30 0 161 -121 161 -149 1 -28 26 -51 73 -67 25 -8
51 -22 58 -30 6 -8 18 -14 25 -14 8 0 23 -9 34 -20 11 -11 29 -20 40 -20 11 0
20 -5 20 -10 0 -6 17 -18 38 -28 49 -23 56 -28 119 -89 29 -29 71 -62 92 -73
22 -10 41 -23 43 -28 1 -4 27 -23 57 -41 29 -18 64 -45 78 -61 13 -16 34 -32
46 -35 57 -16 125 -68 140 -107 3 -10 13 -18 21 -18 8 0 44 -28 79 -62 36 -35
73 -70 83 -80 11 -9 39 -37 64 -63 51 -53 88 -75 123 -75 32 0 73 -21 112 -59
24 -22 34 -42 39 -77 7 -53 38 -94 71 -94 24 0 56 -27 80 -67 20 -35 77 -68
130 -77 43 -7 125 -44 125 -56 0 -17 103 -52 135 -46 92 18 113 121 90 431 -7
83 -5 94 18 145 14 30 35 63 46 72 14 12 21 30 21 53 0 33 9 41 43 36 4 0 7
14 7 33 0 19 4 37 8 40 7 4 8 58 2 81 -6 21 14 72 47 117 27 38 50 55 111 83
69 33 79 41 97 81 11 24 23 44 27 44 5 0 8 6 8 13 0 7 15 29 33 49 70 77 152
97 224 57 46 -26 62 -46 63 -80 0 -15 8 -44 18 -66 17 -38 18 -39 51 -30 31 8
37 5 68 -26 32 -32 34 -37 25 -70 -15 -55 12 -74 110 -79 69 -3 80 -6 108 -33
45 -42 70 -104 70 -169 l0 -55 32 10 c45 12 43 13 77 -22 27 -27 30 -35 25
-73 -6 -38 -3 -44 21 -60 19 -12 30 -14 39 -7 7 6 44 13 82 16 58 5 74 3 100
-13 33 -21 64 -71 64 -104 0 -10 5 -18 10 -18 6 0 10 -9 10 -19 0 -23 45 -41
102 -41 25 0 46 -7 60 -20 20 -19 33 -20 164 -17 132 3 145 5 181 28 21 14 70
40 108 58 39 18 101 53 140 79 95 64 326 288 394 381 150 208 295 446 306 505
7 37 10 45 68 166 60 128 59 123 37 188 -12 36 -21 100 -25 177 -3 66 -10 131
-14 145 -5 14 -15 45 -22 69 -15 48 -25 56 -60 43 -13 -5 -31 -6 -39 -1 -8 4
-39 17 -68 28 -57 24 -92 17 -92 -18 0 -10 -9 -26 -20 -36 -19 -17 -22 -17
-37 -3 -12 13 -15 39 -15 123 -1 66 4 111 11 118 6 6 11 29 11 52 0 51 16 110
36 130 17 17 79 21 89 5 10 -17 68 -11 110 10 22 11 45 20 52 20 17 0 63 -63
63 -87 0 -11 9 -28 20 -38 11 -10 20 -28 20 -40 0 -11 5 -26 11 -32 6 -6 16
-21 23 -34 22 -43 42 -47 95 -17 l49 27 19 -22 c27 -29 43 -80 43 -133 0 -24
5 -46 10 -49 6 -3 10 -1 10 5 0 30 168 140 213 140 12 0 39 -16 61 -35 21 -19
42 -35 46 -35 12 0 60 41 60 51 0 6 16 28 37 49 27 31 44 40 68 40 26 0 42 11
88 61 32 33 57 67 57 75 0 47 185 264 226 264 8 0 14 5 14 10 0 6 9 10 20 10
11 0 20 5 20 10 0 6 13 10 29 10 33 0 63 30 222 223 18 20 36 37 42 37 6 0 21
9 33 21 21 20 22 27 17 110 -6 86 -5 91 27 154 18 36 37 65 41 65 5 0 9 6 9
13 0 22 60 86 96 103 35 17 36 18 29 60 -3 25 -2 45 5 49 5 3 10 14 10 25 0
10 11 40 25 67 38 74 58 183 50 278 -9 108 -24 141 -67 150 -45 10 -68 32 -68
67 0 18 -10 39 -26 54 -24 24 -29 26 -93 19 -59 -6 -73 -4 -107 15 -63 36 -87
70 -109 160 -8 31 -16 44 -26 41 -7 -2 -35 -6 -61 -9 -60 -6 -78 10 -78 72 0
30 -4 46 -12 47 -35 3 -84 -4 -95 -13 -21 -17 -143 -5 -188 18 -58 30 -110
147 -75 169 6 3 10 21 10 38 0 25 -15 49 -73 114 -39 45 -80 93 -90 107 -10
14 -24 26 -32 26 -39 0 -185 119 -185 150 0 6 -5 19 -12 29 -10 17 -20 19 -60
14 -42 -5 -52 -3 -73 17 -15 14 -25 35 -25 50 0 32 -61 100 -90 100 -11 0 -20
-3 -20 -8 0 -10 -73 -41 -129 -54 -39 -9 -57 -8 -98 6 -42 14 -56 25 -84 69
-29 44 -34 63 -39 130 l-5 78 -19 -33 c-43 -76 -86 -98 -118 -60 -20 22 -33
98 -19 107 6 3 11 19 11 35 0 23 -7 33 -30 45 -37 19 -60 19 -60 0 0 -8 -4
-15 -10 -15 -5 0 -10 -6 -10 -13 0 -21 -71 -84 -120 -106 -93 -42 -222 -18
-301 56 -27 25 -51 57 -54 74 -4 16 -11 31 -16 34 -12 8 -12 82 1 90 15 9 12
35 -5 35 -7 0 -19 8 -24 18 -9 15 -10 13 -11 -10 0 -15 -4 -30 -10 -33 -5 -3
-10 -20 -10 -37 0 -21 -10 -40 -34 -64 -39 -39 -46 -41 -77 -15 -20 16 -24 30
-27 96 -3 42 -10 88 -17 101 -12 23 -12 23 -36 -23 -31 -62 -105 -138 -151
-158 -52 -21 -130 -19 -184 5 -94 43 -164 135 -164 214 0 30 -4 36 -21 36 -19
0 -20 -4 -14 -41 7 -38 5 -43 -30 -75 -32 -29 -40 -32 -59 -23 -44 23 -55 41
-62 100 -4 32 -12 63 -18 68 -29 23 -96 14 -96 -14 0 -3 -11 -22 -24 -43 -16
-25 -44 -48 -86 -70 -55 -28 -73 -32 -140 -32 -98 0 -139 21 -195 96 -38 52
-42 54 -75 48 -44 -7 -50 -11 -50 -31 0 -51 -86 -73 -121 -31 -11 11 -19 31
-19 42 0 19 -6 22 -53 23 -50 1 -55 -1 -72 -30 -31 -52 -71 -84 -149 -121 -90
-43 -132 -45 -200 -8 -54 29 -79 64 -90 126 -9 45 -29 69 -54 64 -13 -2 -18
-16 -22 -56 -4 -39 -12 -59 -33 -80 -26 -26 -29 -26 -55 -12 -18 10 -33 32
-44 65 -10 28 -21 58 -24 68 -4 11 -17 17 -40 17 -27 0 -34 -4 -34 -20 0 -37
-68 -113 -132 -147 -56 -31 -66 -33 -159 -33 -81 0 -105 4 -136 21 -56 31 -64
40 -85 86 -22 50 -38 63 -38 32 0 -32 -28 -59 -61 -59 -35 0 -79 50 -79 91 0
16 -4 29 -9 29 -23 0 -61 -21 -61 -33 0 -16 -54 -75 -97 -105 -42 -30 -160
-31 -219 -3 -54 27 -114 97 -114 135 0 7 -7 19 -15 26 -13 11 -15 6 -15 -38 0
-45 -4 -53 -35 -81 -20 -17 -39 -31 -43 -31 -31 0 -82 72 -82 115 0 13 -11 30
-26 40 -24 15 -27 15 -44 0 -11 -10 -19 -35 -22 -66 -6 -58 -43 -103 -111
-137 -69 -34 -175 -49 -220 -31 -38 15 -87 57 -87 76 0 7 -4 13 -10 13 -5 0
-10 13 -10 29 0 17 -4 33 -10 36 -47 29 63 235 125 235 12 0 37 5 55 12 27 9
46 8 104 -7 39 -10 77 -22 84 -28 8 -6 12 -5 13 4 0 8 4 4 9 -8 10 -26 32 -30
49 -10 6 8 23 12 38 10 21 -3 36 4 60 27 39 37 62 38 113 4 l40 -27 47 39 c27
21 55 46 64 56 9 10 24 18 33 18 9 0 16 5 16 10 0 6 57 10 153 10 159 -1 220
5 402 40 61 12 144 24 185 27 41 3 77 7 79 9 13 11 764 2 916 -11z m6320 -387
c19 -62 26 -233 34 -778 8 -592 1 -1008 -23 -1365 -10 -160 -12 -170 -31 -170
-19 0 -20 7 -20 155 0 85 6 265 12 400 18 342 17 1440 -1 1625 -8 77 -12 143
-9 148 9 15 31 6 38 -15z m-4442 -665 c8 -10 19 -30 22 -46 10 -37 21 -42 47
-18 26 25 38 26 63 7 10 -7 26 -11 36 -9 19 5 83 -21 112 -45 10 -9 17 -29 17
-49 0 -32 21 -46 35 -23 9 15 43 -10 50 -37 5 -23 6 -23 54 12 59 43 86 44
131 5 19 -16 44 -29 56 -30 11 0 29 -8 38 -19 11 -12 37 -21 73 -25 57 -7 93
-27 93 -53 0 -7 5 -13 10 -13 6 0 10 -6 10 -13 0 -9 9 -12 29 -9 23 3 33 -1
45 -20 12 -19 23 -24 45 -20 62 9 122 -29 132 -83 3 -14 15 -22 39 -25 32 -5
35 -8 38 -43 5 -55 -48 -140 -100 -159 -9 -4 -17 -23 -21 -46 -7 -53 -32 -87
-83 -111 -29 -14 -52 -18 -82 -14 -40 5 -44 3 -82 -40 -49 -55 -125 -100 -157
-92 -55 13 -48 71 12 100 41 19 59 42 74 93 13 45 15 48 95 120 l48 44 -14 45
c-7 25 -20 48 -28 51 -24 9 -39 35 -40 65 0 24 -4 27 -37 28 -43 1 -91 25
-107 54 -15 26 -38 44 -57 45 -8 0 -21 6 -27 12 -7 7 -28 11 -46 10 -52 -5
-116 32 -130 74 -5 16 -13 20 -35 16 -17 -2 -34 2 -44 12 -9 9 -37 19 -64 23
-59 7 -101 35 -120 80 -8 22 -19 33 -27 30 -8 -3 -25 1 -39 8 -22 11 -32 11
-67 -1 -47 -16 -74 -11 -107 19 -31 27 -29 55 5 83 32 28 82 31 105 7z m-143
-36 c0 -7 -9 -18 -21 -25 -18 -11 -23 -11 -34 5 -19 26 8 57 36 42 11 -5 19
-15 19 -22z m-3369 -40 c25 -18 29 -18 57 -3 28 14 32 14 53 -3 21 -17 26 -17
60 -3 34 13 42 13 71 -1 18 -9 45 -28 60 -42 19 -17 38 -25 63 -25 19 0 35 -4
35 -10 0 -6 26 -10 59 -10 51 0 62 -4 89 -30 18 -16 40 -30 50 -30 11 0 27 -9
36 -19 11 -12 38 -22 68 -26 63 -9 98 -42 98 -93 0 -30 2 -33 16 -21 14 11 18
10 29 -5 11 -14 11 -22 2 -37 -16 -25 -44 -24 -52 2 -4 12 -10 17 -14 12 -3
-6 -16 -15 -28 -22 -29 -15 -81 5 -112 45 -23 29 -49 36 -138 34 -35 -1 -49 5
-81 34 -47 43 -123 71 -151 56 -29 -15 -63 -12 -118 11 -47 19 -53 19 -87 5
-52 -21 -71 -69 -68 -166 2 -44 -2 -84 -9 -97 -10 -18 -10 -28 1 -47 11 -22
10 -27 -13 -52 -25 -26 -26 -27 -51 -11 -77 51 -113 118 -94 178 9 31 8 44 -2
64 -10 20 -11 28 -2 37 17 17 15 60 -4 118 -15 47 -15 50 7 94 46 94 101 114
170 63z m3429 -582 c23 -8 53 -15 67 -15 13 0 34 -7 46 -15 17 -11 61 -15 170
-17 133 -2 151 -5 170 -23 12 -11 26 -19 30 -17 15 5 37 -19 37 -39 0 -17 -39
-98 -59 -123 -5 -6 -12 -25 -15 -41 -4 -17 -15 -45 -26 -63 -27 -44 -80 -45
-130 -2 -19 16 -42 30 -50 30 -9 0 -27 8 -40 18 -14 9 -42 17 -62 18 -26 0
-49 10 -75 30 -21 17 -49 37 -62 44 -31 16 -43 26 -92 74 -57 56 -52 120 12
145 32 13 31 13 79 -4z m-327 -729 c10 -8 27 -12 38 -9 10 3 26 0 34 -7 12
-10 24 -8 61 11 52 25 67 21 98 -27 l20 -29 28 28 c19 20 34 26 47 22 11 -3
34 1 50 9 43 23 64 20 100 -15 l32 -31 74 15 c80 17 133 11 165 -18 10 -9 33
-18 52 -19 45 -4 78 -15 78 -27 0 -6 15 1 33 15 19 15 45 26 58 26 24 0 88
-34 101 -53 4 -7 43 -10 101 -9 94 1 94 1 134 -33 27 -23 47 -32 60 -29 14 4
27 -3 44 -23 23 -29 25 -29 61 -15 47 18 97 9 132 -23 15 -14 31 -23 35 -21 4
3 20 -6 36 -20 16 -14 36 -22 44 -19 8 3 33 8 56 11 37 5 44 2 95 -45 58 -54
69 -58 99 -39 15 9 24 7 52 -12 24 -18 44 -24 78 -22 25 1 49 6 55 12 15 15
35 12 67 -11 16 -11 48 -22 72 -24 23 -1 64 -9 90 -16 43 -12 52 -12 79 4 52
30 101 20 168 -35 38 -30 41 -31 59 -14 68 62 84 -77 18 -151 -11 -13 -28 -23
-37 -23 -9 0 -23 -12 -31 -27 -57 -112 -84 -140 -184 -193 -42 -22 -55 -25
-76 -16 -38 16 -59 36 -59 57 0 24 -42 26 -60 4 -18 -22 -34 -19 -63 15 -23
25 -35 30 -75 30 -36 0 -56 7 -86 30 -40 31 -95 40 -125 21 -9 -6 -29 -1 -57
15 -29 16 -63 25 -101 27 -43 2 -68 10 -98 30 -22 15 -47 27 -56 27 -9 0 -29
10 -44 22 l-28 22 -41 -22 c-55 -29 -98 -28 -127 3 -16 16 -31 22 -46 19 -11
-3 -32 1 -45 10 -22 15 -26 14 -60 -9 -21 -14 -47 -25 -59 -25 -29 0 -89 46
-89 68 0 10 -3 13 -8 6 -14 -21 -45 -25 -69 -9 -23 15 -26 15 -58 -9 -44 -34
-85 -33 -125 1 -27 22 -36 25 -58 17 -20 -8 -33 -7 -48 3 -18 11 -24 10 -44
-7 -40 -34 -69 -36 -121 -7 -41 22 -49 24 -66 12 -29 -20 -184 -31 -214 -14
-34 18 -99 20 -123 3 -26 -18 -55 -18 -100 1 -35 15 -39 14 -77 -7 -32 -18
-42 -20 -48 -9 -7 10 -21 9 -70 -9 l-62 -23 -24 23 c-14 13 -25 18 -25 12 0
-17 -35 -15 -50 3 -19 23 2 65 29 58 11 -3 27 3 40 16 23 23 93 29 121 11 10
-6 22 -4 38 6 20 13 29 14 52 4 25 -10 33 -9 58 8 46 33 74 36 106 11 23 -18
32 -20 47 -11 10 7 32 12 49 12 16 0 30 4 30 10 0 5 11 17 25 26 21 14 31 14
74 3 41 -10 55 -10 75 0 20 11 28 11 47 -3 20 -14 26 -14 45 -1 41 27 99 30
137 6 31 -19 35 -19 55 -5 18 13 28 13 55 3 28 -10 37 -9 67 10 43 26 56 26
105 1 22 -11 57 -20 78 -20 21 0 47 -5 58 -11 16 -8 30 -7 58 5 33 12 45 13
82 2 43 -13 89 -5 89 16 0 4 11 8 25 8 37 0 50 33 28 73 -24 43 -30 46 -62 34
-37 -14 -74 -3 -116 34 -19 17 -39 27 -46 24 -6 -4 -21 -2 -34 5 -20 11 -26 9
-46 -9 -13 -11 -36 -21 -52 -21 -26 0 -87 33 -95 52 -2 4 -17 8 -34 8 -16 0
-43 10 -60 21 -29 21 -31 21 -64 5 -48 -22 -78 -20 -111 8 -26 22 -35 24 -93
18 -88 -7 -148 -4 -173 10 -12 7 -34 11 -48 9 -19 -1 -32 5 -43 21 -14 19 -19
21 -36 10 -31 -19 -83 -15 -109 9 -18 17 -27 19 -44 11 -27 -13 -69 -22 -127
-29 -39 -4 -48 -1 -69 21 -19 20 -28 23 -47 15 -19 -7 -26 -5 -30 6 -13 33 24
63 41 35 4 -6 22 2 43 20 40 33 85 39 115 16z m-1963 -291 c13 -16 8 -111 -7
-126 -5 -5 -19 -3 -33 4 -34 17 -39 73 -10 110 25 31 33 33 50 12z m30 -225
c7 -18 10 -49 6 -82 -4 -29 -10 -105 -15 -168 -8 -110 -7 -117 15 -156 19 -32
24 -55 24 -112 0 -39 -5 -83 -12 -97 -10 -21 -9 -31 5 -54 11 -19 15 -39 11
-60 -9 -42 0 -71 36 -116 42 -53 57 -90 64 -159 5 -41 13 -64 26 -76 11 -10
20 -22 20 -28 0 -14 42 -23 55 -12 18 15 76 -7 118 -45 45 -40 70 -50 94 -36
21 11 73 -15 73 -37 0 -10 13 -11 60 -6 55 6 63 4 96 -21 19 -15 40 -38 46
-51 6 -13 18 -24 27 -24 9 0 26 -13 39 -29 16 -21 35 -31 67 -35 81 -13 145
-61 145 -110 0 -14 12 -28 35 -40 19 -11 35 -23 35 -27 0 -11 81 -92 105 -105
11 -6 29 -29 40 -50 18 -35 53 -78 173 -212 17 -20 32 -41 32 -47 0 -6 16 -35
35 -65 19 -30 35 -61 35 -69 0 -7 11 -24 24 -36 14 -13 28 -40 32 -61 3 -22
13 -47 21 -56 30 -34 -12 -74 -46 -44 -10 9 -23 16 -30 16 -23 0 -61 48 -61
77 0 20 -7 31 -22 38 -13 6 -28 20 -34 32 -6 13 -29 36 -51 52 -22 16 -51 44
-64 63 -40 57 -103 118 -139 135 -48 22 -90 63 -90 87 0 13 -12 28 -29 37 -15
9 -34 31 -42 48 -9 19 -21 31 -33 31 -41 0 -99 25 -132 58 -19 19 -34 38 -34
43 0 5 -13 9 -28 9 -16 0 -37 9 -47 20 -13 14 -31 20 -62 20 -40 0 -49 5 -94
51 -38 39 -55 50 -71 45 -12 -3 -49 4 -82 14 -33 11 -68 18 -77 15 -10 -3 -20
-1 -24 5 -3 5 -16 10 -28 10 -12 0 -40 16 -62 35 -43 38 -55 41 -73 23 -16
-16 -52 17 -52 49 0 32 -37 103 -54 103 -7 0 -34 21 -60 46 l-47 47 2 77 c1
45 -3 86 -11 99 -6 13 -9 36 -6 52 3 15 -1 49 -8 76 -8 26 -14 88 -15 138 0
49 -5 101 -11 116 -8 18 -8 43 -2 80 8 41 7 62 -3 86 -8 18 -10 35 -6 38 5 2
11 24 13 48 3 25 13 59 22 77 20 42 20 47 -4 77 -35 45 -26 78 49 171 31 40
35 41 52 27 9 -9 23 -29 29 -45z m3261 -355 c22 -22 40 -33 51 -29 11 3 23 -4
34 -21 19 -28 42 -27 78 6 37 35 92 21 154 -38 6 -6 12 -16 12 -22 0 -16 18
-13 51 6 35 21 62 10 68 -28 4 -34 17 -39 86 -32 59 5 61 4 100 -31 37 -34 44
-37 86 -32 28 3 51 0 58 -7 21 -21 7 -154 -19 -177 -4 -3 -13 -21 -23 -41 -25
-55 -52 -75 -82 -61 -22 10 -27 9 -42 -16 -27 -41 -90 -100 -129 -118 -30 -15
-38 -15 -71 -1 -21 8 -45 28 -55 43 -27 47 -21 148 13 216 18 35 3 98 -23 98
-7 0 -22 10 -35 22 -24 22 -25 22 -54 5 -17 -9 -51 -17 -75 -17 -38 0 -51 6
-88 40 -24 22 -53 40 -65 40 -12 0 -31 9 -43 20 -12 11 -30 20 -41 20 -18 0
-56 17 -67 29 -3 3 -22 21 -42 39 -30 28 -39 32 -56 23 -15 -8 -23 -6 -37 9
-16 18 -17 23 -4 46 19 36 36 40 62 16 l22 -21 40 25 c57 34 95 32 136 -11z
m-943 -964 c7 -4 19 -26 27 -47 11 -34 18 -40 51 -45 36 -6 73 -40 74 -66 0
-7 6 -13 13 -13 15 0 51 -37 60 -62 5 -15 10 -15 48 -2 34 12 48 13 71 3 38
-15 88 -80 88 -113 0 -14 1 -26 3 -26 45 -9 107 -9 107 -2 0 16 82 20 118 6
18 -7 36 -23 42 -36 5 -13 9 -17 9 -10 1 16 38 52 54 52 17 0 39 -37 27 -45
-6 -3 -10 -15 -10 -26 0 -11 -9 -39 -20 -61 -11 -23 -20 -47 -20 -54 0 -7 -17
-45 -39 -86 -42 -79 -71 -100 -71 -51 0 28 0 28 -58 25 -53 -3 -61 -1 -90 26
-18 17 -32 40 -32 54 0 25 -20 64 -20 40 0 -13 -10 -25 -43 -51 -15 -12 -20
-11 -37 4 -11 10 -20 26 -20 35 0 13 -6 16 -26 12 -33 -6 -109 33 -136 71 -16
22 -19 37 -14 67 6 35 3 42 -36 79 -28 28 -50 41 -69 41 -15 0 -40 10 -55 23
-22 19 -27 34 -33 90 -4 37 -12 72 -19 79 -18 18 -15 75 6 87 21 13 33 13 50
2z m-10052 -733 c-9 -153 -8 -280 5 -423 14 -169 28 -1170 21 -1598 -5 -320
-7 -358 -21 -355 -14 3 -16 70 -17 678 -1 371 -7 810 -14 975 -17 409 -19 772
-3 808 7 15 18 27 24 27 9 0 10 -30 5 -112z m2558 -2433 c8 -21 0 -22 -139
-30 -185 -9 -586 -65 -765 -105 -25 -6 -101 -22 -170 -36 -69 -14 -141 -29
-160 -34 -147 -35 -275 -54 -298 -45 -27 10 3 26 64 35 79 12 175 33 269 60
22 6 60 15 86 20 25 4 63 13 85 18 72 20 441 79 629 102 55 7 123 16 150 20
28 4 93 8 146 9 79 1 98 -2 103 -14z m-2229 -137 c33 -12 75 -30 95 -41 19
-11 52 -30 74 -41 37 -20 54 -41 43 -52 -3 -3 -45 15 -93 40 -84 42 -202 86
-230 86 -17 0 -27 17 -19 31 8 12 47 5 130 -23z m5709 -254 c27 -27 34 -58 16
-69 -5 -3 -10 1 -10 9 0 9 -5 16 -11 16 -5 0 -7 -5 -3 -12 5 -7 3 -8 -5 -3 -7
4 -11 15 -8 24 3 12 -1 17 -14 16 -10 -1 -22 -5 -26 -10 -5 -4 -2 -5 6 0 9 5
12 4 7 -3 -4 -7 -2 -12 4 -12 6 0 8 -5 4 -11 -4 -7 -14 0 -25 18 -18 26 -19
27 -19 6 0 -13 -5 -23 -11 -23 -5 0 -7 5 -4 10 8 13 -1 13 -26 -1 -11 -6 -17
-15 -13 -22 4 -7 -2 -3 -14 7 -12 11 -22 24 -22 30 0 6 7 3 14 -7 8 -11 17
-14 20 -8 4 5 2 13 -4 16 -19 12 -80 13 -87 2 -4 -6 0 -8 9 -4 12 4 15 -1 14
-18 0 -13 -5 -20 -11 -17 -5 4 -19 6 -30 5 -15 -1 -16 0 -3 3 9 3 15 11 12 19
-3 8 -13 11 -21 8 -10 -4 -14 -2 -10 4 3 5 -2 9 -12 8 -21 -1 -53 -30 -44 -39
4 -3 3 -6 -1 -6 -3 0 -11 12 -17 26 -7 21 -6 31 7 45 15 17 33 19 164 19 146
0 148 0 174 -26z m2249 -5 c58 -12 80 -30 30 -25 -29 3 -55 -13 -45 -28 3 -5
0 -6 -6 -2 -7 4 -12 13 -12 20 0 9 -11 13 -30 12 -17 0 -30 -6 -30 -13 0 -7
-5 -13 -11 -13 -5 0 -7 5 -4 10 8 13 -1 13 -26 -1 -11 -5 -17 -15 -13 -22 3
-7 -6 0 -20 16 -14 15 -29 27 -34 27 -13 0 -24 -29 -15 -42 4 -7 1 -8 -8 -2
-8 5 -23 8 -34 6 -17 -1 -17 -1 -3 6 25 10 8 27 -27 28 -32 0 -56 -15 -47 -30
3 -5 0 -6 -6 -2 -24 14 -11 35 31 49 52 19 230 22 310 6z m-370 -29 c3 -11 1
-23 -4 -26 -5 -3 -9 0 -9 6 0 8 -9 10 -25 6 -29 -7 -34 8 -7 23 26 16 39 13
45 -9z m546 6 c20 -11 21 -14 7 -19 -11 -4 -14 -12 -10 -19 4 -7 -1 -6 -12 3
-26 21 -68 23 -60 3 4 -10 2 -13 -7 -7 -6 4 -21 7 -32 6 -15 -1 -16 0 -3 3 10
3 15 11 11 20 -4 10 0 12 11 8 9 -3 16 -1 16 5 0 15 50 13 79 -3z m-2783 -33
c-10 -10 -19 5 -10 18 6 11 8 11 12 0 2 -7 1 -15 -2 -18z m2151 16 c-9 -6 -15
-14 -13 -18 3 -4 -9 -5 -25 -3 -34 5 -28 18 11 25 42 7 46 7 27 -4z m413 -4
c0 -12 -19 -12 -23 0 -4 9 -1 12 9 8 7 -3 14 -7 14 -8z m335 1 c19 -8 35 -16
35 -18 0 -2 -20 -3 -43 -3 -37 0 -43 3 -39 18 5 21 4 21 47 3z m-830 -26 c-3
-5 -15 -10 -26 -10 -10 0 -19 5 -19 10 0 6 12 10 26 10 14 0 23 -4 19 -10z
m915 1 c0 -5 -7 -11 -15 -15 -9 -3 -15 0 -15 9 0 8 7 15 15 15 8 0 15 -4 15
-9z m-3008 -23 c-7 -7 -12 -8 -12 -2 0 14 12 26 19 19 2 -3 -1 -11 -7 -17z
m428 -24 c0 -13 -4 -24 -10 -24 -5 0 -10 14 -10 31 0 17 4 28 10 24 6 -3 10
-17 10 -31z m1600 26 c0 -5 -9 -10 -20 -10 -11 0 -20 5 -20 10 0 6 9 10 20 10
11 0 20 -4 20 -10z m1045 0 c3 -6 -4 -9 -19 -8 -13 1 -22 6 -20 10 7 11 32 10
39 -2z m-1110 -20 c-3 -5 -13 -10 -21 -10 -8 0 -12 5 -9 10 3 6 13 10 21 10 8
0 12 -4 9 -10z m1170 0 c3 -5 -1 -10 -9 -10 -9 0 -16 5 -16 10 0 6 4 10 9 10
6 0 13 -4 16 -10z m-3149 -27 c-10 -10 -19 5 -10 18 6 11 8 11 12 0 2 -7 1
-15 -2 -18z m1874 -13 c0 -5 -5 -10 -11 -10 -5 0 -7 5 -4 10 3 6 8 10 11 10 2
0 4 -4 4 -10z m610 -5 c0 -12 -16 -15 -80 -15 -64 0 -80 3 -80 15 0 12 16 15
80 15 64 0 80 -3 80 -15z m1210 5 c10 -7 -5 -10 -53 -10 -43 0 -66 4 -62 10 8
13 95 13 115 0z m-1459 -25 c0 -13 -41 -19 -41 -7 0 11 20 22 33 18 5 -1 8 -6
8 -11z m417 -3 c4 -13 -45 -16 -75 -5 -16 6 -15 8 7 13 36 9 63 5 68 -8z
m1247 8 c4 -6 -12 -10 -39 -10 -25 0 -46 5 -46 10 0 6 18 10 39 10 22 0 43 -4
46 -10z m-315 -20 c0 -11 -4 -20 -10 -20 -5 0 -10 9 -10 20 0 11 5 20 10 20 6
0 10 -9 10 -20z m-5166 -6 c16 -41 0 -94 -28 -94 -6 0 -5 5 2 12 7 7 12 27 12
45 0 33 0 33 -51 33 -31 0 -48 4 -44 10 11 17 102 12 109 -6z m5686 6 c11 -7
-2 -10 -42 -10 -32 0 -58 4 -58 10 0 13 80 13 100 0z m-3635 -21 c8 -23 1 -34
-14 -24 -13 8 -15 45 -2 45 5 0 13 -9 16 -21z m1685 11 c0 -5 -5 -10 -11 -10
-5 0 -7 5 -4 10 3 6 8 10 11 10 2 0 4 -4 4 -10z m560 0 c0 -5 -2 -10 -4 -10
-3 0 -8 5 -11 10 -3 6 -1 10 4 10 6 0 11 -4 11 -10z m-4480 -9 c0 -13 -27 -21
-45 -15 -8 4 -12 10 -9 15 7 12 54 12 54 0z m5100 -15 c0 -14 -4 -28 -10 -31
-6 -4 -10 7 -10 24 0 17 5 31 10 31 6 0 10 -11 10 -24z m1005 14 c17 -7 14 -9
-15 -11 -76 -5 -110 -1 -110 11 0 12 97 12 125 0z m-1535 -10 c0 -5 -6 -10
-14 -10 -8 0 -18 5 -21 10 -3 6 3 10 14 10 12 0 21 -4 21 -10z m-4700 -9 c0
-15 -15 -21 -39 -14 -17 4 -19 8 -9 14 18 12 48 11 48 0z m6447 -7 c2 -6 -8
-11 -23 -10 -15 1 -29 7 -32 14 -3 10 4 13 24 10 15 -2 29 -8 31 -14z m-867
-4 c0 -5 -9 -10 -20 -10 -11 0 -20 5 -20 10 0 6 9 10 20 10 11 0 20 -4 20 -10z
m-5735 -19 c-9 -8 -55 -9 -55 0 0 9 41 17 53 11 5 -2 5 -7 2 -11z m-160 -21
c-8 -13 -55 -13 -75 0 -11 7 -2 10 33 10 30 0 46 -4 42 -10z m-171 -21 c-6
-11 -45 -12 -71 -2 -14 6 -10 9 17 13 40 7 62 2 54 -11z m691 1 c3 -5 -1 -10
-10 -10 -9 0 -13 5 -10 10 3 6 8 10 10 10 2 0 7 -4 10 -10z m2185 -32 c0 -10
-4 -18 -10 -18 -5 0 -10 15 -10 33 0 24 3 28 10 17 5 -8 10 -23 10 -32z
m-3040 18 c0 -3 -4 -8 -10 -11 -5 -3 -10 -1 -10 4 0 6 5 11 10 11 6 0 10 -2
10 -4z m7920 -6 c-20 -13 -100 -13 -100 0 0 6 26 10 58 10 40 0 53 -3 42 -10z
m-997 -7 c-7 -2 -19 -2 -25 0 -7 3 -2 5 12 5 14 0 19 -2 13 -5z m164 1 c-3 -3
-12 -4 -19 -1 -8 3 -5 6 6 6 11 1 17 -2 13 -5z m1103 -14 c0 -5 -22 -10 -50
-10 -27 0 -50 5 -50 10 0 6 23 10 50 10 28 0 50 -4 50 -10z m-8680 -40 c0 -5
-9 -10 -20 -10 -11 0 -20 5 -20 10 0 6 9 10 20 10 11 0 20 -4 20 -10z m1210
-10 c0 -5 -4 -10 -10 -10 -5 0 -10 5 -10 10 0 6 5 10 10 10 6 0 10 -4 10 -10z
m5120 -5 c0 -8 -4 -15 -10 -15 -5 0 -10 7 -10 15 0 8 5 15 10 15 6 0 10 -7 10
-15z m-6435 -5 c-3 -5 -20 -10 -36 -10 -18 0 -28 4 -24 10 3 6 20 10 36 10 18
0 28 -4 24 -10z m212 -37 c-3 -10 -5 -2 -5 17 0 19 2 27 5 18 2 -10 2 -26 0
-35z m9498 37 c-3 -5 -17 -10 -31 -10 -13 0 -24 5 -24 10 0 6 14 10 31 10 17
0 28 -4 24 -10z m285 0 c0 -5 -9 -10 -19 -10 -11 0 -23 5 -26 10 -4 6 5 10 19
10 14 0 26 -4 26 -10z m-9295 -10 c4 -6 -18 -10 -59 -10 -37 0 -66 4 -66 10 0
6 26 10 59 10 33 0 63 -4 66 -10z m75 0 c0 -5 -9 -10 -21 -10 -11 0 -17 5 -14
10 3 6 13 10 21 10 8 0 14 -4 14 -10z m6666 -17 c-10 -10 -19 5 -10 18 6 11 8
11 12 0 2 -7 1 -15 -2 -18z m-7586 7 c0 -5 -9 -10 -21 -10 -11 0 -17 5 -14 10
3 6 13 10 21 10 8 0 14 -4 14 -10z m3800 -10 c0 -11 -4 -20 -10 -20 -5 0 -10
9 -10 20 0 11 5 20 10 20 6 0 10 -9 10 -20z m6435 10 c3 -5 -3 -10 -14 -10
-12 0 -21 5 -21 10 0 6 6 10 14 10 8 0 18 -4 21 -10z m-3843 -32 c-9 -9 -12
-7 -12 12 0 19 3 21 12 12 9 -9 9 -15 0 -24z m2568 22 c0 -6 -29 -10 -66 -10
-41 0 -63 4 -59 10 3 6 33 10 66 10 33 0 59 -4 59 -10z m-9070 -10 c0 -5 -19
-10 -42 -10 -32 0 -39 3 -28 10 20 13 70 13 70 0z m-170 -20 c0 -5 -17 -10
-37 -9 -34 1 -35 2 -13 9 36 11 50 11 50 0z m610 -10 c11 -7 7 -10 -18 -10
-20 0 -31 4 -27 10 8 13 26 13 45 0z m-812 -17 c-10 -2 -28 -2 -40 0 -13 2 -5
4 17 4 22 1 32 -1 23 -4z m1922 -440 c0 -245 -2 -444 -4 -442 -7 8 -17 875
-10 882 4 4 9 7 11 7 2 0 3 -201 3 -447z m5719 385 c1 -15 -3 -30 -9 -33 -6
-4 -10 14 -9 47 0 39 3 48 9 33 5 -11 9 -32 9 -47z m-604 43 c3 -5 1 -12 -5
-16 -5 -3 -10 1 -10 9 0 18 6 21 15 7z m-2735 -38 c0 -20 -3 -24 -11 -16 -7 7
-9 19 -6 27 10 24 17 19 17 -11z m3750 12 c0 -8 -4 -15 -10 -15 -5 0 -10 7
-10 15 0 8 5 15 10 15 6 0 10 -7 10 -15z m-6540 -32 c0 -16 -5 -35 -10 -43 -7
-11 -10 -4 -10 28 0 23 5 42 10 42 6 0 10 -12 10 -27z m2355 -2 c3 -5 1 -12
-5 -16 -5 -3 -10 1 -10 9 0 18 6 21 15 7z m6570 -1 c-3 -5 -15 -10 -26 -10
-10 0 -19 5 -19 10 0 6 12 10 26 10 14 0 23 -4 19 -10z m125 -20 c0 -5 -4 -10
-10 -10 -5 0 -10 5 -10 10 0 6 5 10 10 10 6 0 10 -4 10 -10z m-10600 -20 c12
-8 9 -10 -13 -10 -16 0 -26 4 -22 10 8 12 16 12 35 0z m607 -52 c-3 -7 -5 -2
-5 12 0 14 2 19 5 13 2 -7 2 -19 0 -25z m7457 -23 c-4 -8 -8 -15 -10 -15 -2 0
-4 7 -4 15 0 8 4 15 10 15 5 0 7 -7 4 -15z m-417 -117 c-2 -13 -4 -3 -4 22 0
25 2 35 4 23 2 -13 2 -33 0 -45z m3490 0 c-3 -7 -5 -2 -5 12 0 14 2 19 5 13 2
-7 2 -19 0 -25z m-3100 -60 c-3 -8 -6 -5 -6 6 -1 11 2 17 5 13 3 -3 4 -12 1
-19z m-7837 -28 c0 -5 -4 -10 -10 -10 -5 0 -10 5 -10 10 0 6 5 10 10 10 6 0
10 -4 10 -10z m9887 -122 c-2 -18 -4 -4 -4 32 0 36 2 50 4 33 2 -18 2 -48 0
-65z m-2460 20 c-3 -7 -5 -2 -5 12 0 14 2 19 5 13 2 -7 2 -19 0 -25z m-6062 2
c3 -5 1 -10 -4 -10 -6 0 -11 5 -11 10 0 6 2 10 4 10 3 0 8 -4 11 -10z m-1365
-45 c0 -25 -4 -45 -10 -45 -5 0 -10 20 -10 45 0 25 5 45 10 45 6 0 10 -20 10
-45z m387 -177 c-1 -40 -3 -10 -3 67 0 77 1 110 3 73 2 -37 2 -100 0 -140z
m10430 150 c-3 -7 -5 -2 -5 12 0 14 2 19 5 13 2 -7 2 -19 0 -25z m100 -65 c-2
-21 -4 -6 -4 32 0 39 2 55 4 38 2 -18 2 -50 0 -70z m-9548 -26 c-2 -99 -17
-118 -18 -24 -1 57 3 86 9 82 6 -3 9 -30 9 -58z m6038 -29 c-3 -8 -6 -5 -6 6
-1 11 2 17 5 13 3 -3 4 -12 1 -19z m-2680 -415 c-1 -43 -3 -10 -3 72 0 83 2
118 3 78 2 -40 2 -107 0 -150z m-2970 55 c-3 -8 -6 -5 -6 6 -1 11 2 17 5 13 3
-3 4 -12 1 -19z m1496 -45 c-18 -2 -48 -2 -65 0 -18 2 -4 4 32 4 36 0 50 -2
33 -4z m-1700 -1160 c-13 -2 -35 -2 -50 0 -16 2 -5 4 22 4 28 0 40 -2 28 -4z
m-87 -10 c-4 -4 -40 -11 -79 -15 -40 -4 -99 -12 -132 -18 -105 -18 -185 -23
-185 -12 0 12 24 16 195 37 127 15 212 18 201 8z m-770 -108 c-13 -10 -42 -15
-85 -14 -36 0 -61 3 -55 5 19 8 98 22 129 23 28 0 29 0 11 -14z"/>
<path d="M14341 17303 c-11 -16 -33 -45 -48 -66 -15 -21 -40 -52 -54 -70 -14
-18 -53 -73 -87 -123 -34 -50 -69 -97 -77 -104 -8 -7 -15 -18 -15 -24 0 -6
-14 -25 -30 -43 -17 -18 -30 -36 -30 -41 0 -4 -8 -17 -19 -28 -10 -11 -40 -52
-67 -90 -26 -38 -51 -70 -56 -72 -4 -2 -8 -9 -8 -15 0 -7 -10 -23 -21 -37 -11
-14 -43 -58 -72 -98 -29 -40 -62 -87 -75 -104 -12 -18 -19 -35 -15 -39 9 -8
53 -14 218 -30 202 -19 329 -29 444 -35 l114 -6 -7 119 c-4 65 -11 192 -17
283 -5 91 -14 246 -19 345 -12 224 -20 305 -30 305 -5 0 -18 -12 -29 -27z"/>
<path d="M5091 17531 c-29 -11 -66 -21 -81 -25 -15 -3 -56 -19 -91 -36 -34
-16 -67 -30 -72 -30 -16 0 -131 -83 -185 -134 -30 -28 -71 -76 -93 -107 -46
-68 -129 -235 -129 -260 0 -10 -4 -20 -9 -23 -5 -3 -11 -20 -14 -38 -3 -18
-12 -60 -20 -93 -53 -207 -65 -617 -26 -890 11 -82 25 -170 30 -195 4 -25 11
-61 14 -80 4 -19 10 -44 15 -55 8 -20 16 -54 26 -125 3 -19 9 -44 13 -55 5
-11 14 -38 20 -60 30 -100 107 -264 165 -350 99 -148 209 -228 386 -278 122
-35 317 -38 440 -7 101 25 129 34 178 56 29 13 58 24 65 24 30 0 173 121 238
202 33 42 92 159 109 218 7 25 16 54 21 65 8 22 11 36 33 195 40 290 23 700
-44 1038 -5 28 -14 73 -19 100 -6 26 -15 67 -21 92 -6 25 -15 61 -19 80 -29
118 -150 400 -204 475 -122 167 -147 191 -257 246 -109 54 -138 61 -290 65
-103 3 -135 0 -179 -15z"/>
<path d="M8460 12709 c0 -5 5 -7 10 -4 6 3 10 8 10 11 0 2 -4 4 -10 4 -5 0
-10 -5 -10 -11z"/>
<path d="M8168 12636 c-22 -16 -24 -81 -4 -102 17 -16 52 -19 61 -4 3 6 16 10
29 10 49 0 61 46 21 85 -27 28 -79 33 -107 11z"/>
<path d="M8901 12622 c-6 -2 -11 -10 -11 -18 0 -10 14 -14 56 -14 40 0 55 3
52 13 -5 12 -75 26 -97 19z"/>
<path d="M9556 12597 c-25 -18 -17 -51 14 -55 14 -2 31 -9 38 -15 9 -7 16 -7
24 1 7 7 29 12 50 12 21 0 38 4 38 9 0 5 9 13 20 16 38 12 23 35 -22 36 -24 0
-66 3 -94 5 -32 2 -57 -1 -68 -9z"/>
<path d="M10363 12585 c-2 -8 -3 -24 -1 -37 2 -19 10 -24 41 -26 31 -3 45 3
72 27 19 16 31 32 26 35 -4 3 -36 7 -70 10 -46 3 -64 0 -68 -9z"/>
<path d="M11255 12580 l-50 -7 58 -1 c32 -1 57 2 57 8 0 6 -3 9 -7 8 -5 0 -30
-4 -58 -8z"/>
<path d="M11946 12514 c-3 -8 -1 -14 4 -14 6 0 10 -7 10 -16 0 -24 61 -74 91
-74 31 0 89 49 89 75 0 31 -24 40 -107 41 -62 2 -83 -1 -87 -12z"/>
<path d="M12700 12334 c0 -52 42 -84 110 -84 43 0 90 24 90 45 0 24 -40 58
-72 61 -18 1 -54 5 -80 8 l-48 6 0 -36z"/>
<path d="M7670 12136 c-23 -8 -36 -20 -38 -34 -3 -20 1 -22 38 -22 45 0 70 17
70 49 0 24 -17 26 -70 7z"/>
<path d="M13440 12076 c0 -47 20 -62 60 -45 39 18 37 29 -6 57 -47 29 -54 28
-54 -12z"/>
<path d="M14160 11908 c0 -28 13 -57 26 -62 11 -4 14 4 14 34 0 33 -3 40 -20
40 -11 0 -20 -6 -20 -12z"/>
<path d="M7108 11893 c7 -3 16 -2 19 1 4 3 -2 6 -13 5 -11 0 -14 -3 -6 -6z"/>
<path d="M6448 11733 c-13 -3 -18 -14 -18 -36 0 -26 6 -35 31 -46 28 -12 32
-11 55 10 14 13 24 34 24 50 0 26 -3 28 -37 27 -21 -1 -46 -3 -55 -5z"/>
<path d="M5765 11502 c-48 -22 -70 -87 -41 -124 32 -43 96 7 96 75 0 52 -16
66 -55 49z"/>
<path d="M5075 11056 c-17 -13 -18 -17 -5 -25 18 -12 33 1 28 23 -3 15 -5 16
-23 2z"/>
<path d="M4425 10670 c-10 -11 -15 -20 -11 -20 11 0 39 30 34 36 -3 2 -13 -5
-23 -16z"/>
<path d="M13712 8580 c0 -14 2 -19 5 -12 2 6 2 18 0 25 -3 6 -5 1 -5 -13z"/>
<path d="M10425 6297 c-23 -28 -64 -117 -54 -117 25 0 50 24 69 66 24 53 14
87 -15 51z"/>
<path d="M13441 10157 c-14 -14 -14 -64 -1 -72 15 -9 90 14 90 29 0 19 -76 56
-89 43z"/>
<path d="M14485 9751 c-25 -5 -31 -12 -33 -39 -4 -35 6 -39 40 -19 25 14 68
53 68 62 0 6 -35 5 -75 -4z"/>
<path d="M13852 9244 c-8 -8 -11 -25 -8 -37 3 -12 -1 -28 -10 -38 -12 -14 -13
-19 -2 -25 7 -5 20 -9 28 -9 16 0 50 36 50 54 0 6 5 11 10 11 6 0 10 14 10 30
0 27 -3 30 -32 30 -18 -1 -39 -8 -46 -16z"/>
<path d="M13840 9089 c0 -24 23 -21 28 4 2 10 -3 17 -12 17 -10 0 -16 -9 -16
-21z"/>
<path d="M12738 8300 c-26 -27 -36 -50 -22 -50 11 0 54 54 54 68 0 16 -1 16
-32 -18z"/>
<path d="M12911 8253 c0 -13 -5 -23 -11 -23 -5 0 -10 -10 -10 -22 l0 -22 16
22 c8 12 13 32 11 45 l-4 22 -2 -22z"/>
<path d="M8308 5113 c7 -3 16 -2 19 1 4 3 -2 6 -13 5 -11 0 -14 -3 -6 -6z"/>
<path d="M10506 5095 c4 -8 10 -12 15 -9 11 6 2 24 -11 24 -5 0 -7 -7 -4 -15z"/>
</g>
</svg>
